<svg height="512" viewBox="0 0 60 60" width="512" xmlns="http://www.w3.org/2000/svg"><g id="Page-1" fill="none" fill-rule="evenodd"><g id="001---Degree" fill-rule="nonzero" transform="translate(-1 -1)"><g id="colour" transform="translate(2 2)"><path id="Shape" d="m57.33 11.94-6.4 2.29c-.2858978-.1532075-.605647-.2322852-.93-.23-.8025604.0006541-1.5270016.4809901-1.84 1.22l-5.16 1.84v-4.06c0-1.66-6.27-3-14-3s-14 1.34-14 3v4.06l-14.33-5.12c-.39548448-.1435417-.65882556-.5192718-.65882556-.94s.26334108-.7964583.65882556-.94l28-10c.2264646-.08006734.4735354-.08006734.7 0l28 10c.3926497.1517595.6482176.5331652.6392631.9540269s-.2805138.7910519-.6792631.9259731z" fill="#972fb2"/><path id="Shape" d="m26 10c-7.73 0-14 1.34-14 3v3l3 1.07v-4.07c0-1.55 5.48-2.82 12.5-3z" fill="#66239c"/><path id="Shape" d="m57.33 10.06-28-10c-.2264646-.08006734-.4735354-.08006734-.7 0l-1.15.41 26.83 9.59c.3954845.1435417.6588256.5192718.6588256.94s-.2633411.7964583-.6588256.94l-6.4 2.29c-.2799346-.1499969-.5924132-.228975-.91-.23-.8025604.0006541-1.5270016.4809901-1.84 1.22l-2.16.78v1.07l5.16-1.84c.3099133-.7429294 1.035025-1.2276508 1.84-1.23.324353-.0022852.6441022.0767925.93.23l6.4-2.29c.3954845-.1435417.6588256-.5192718.6588256-.94s-.2633411-.7964583-.6588256-.94z" fill="#66239c"/><path id="Shape" d="m4 41c0 5.28-.82 9.61-1.86 10h-.14c-1.1 0-2-4.48-2-10s.9-10 2-10h.12c1.05.37 1.88 4.7 1.88 10z" fill="#9c5126"/><path id="Shape" d="m4 41c0 5.28-.82 9.61-1.86 10h-.14c-1.1 0-2-4.48-2-10s.9-10 2-10h.12c1.05.37 1.88 4.7 1.88 10z" fill="#9c5126"/><path id="Shape" d="m58 41c0 5.52-.9 10-2 10-6.7112299-1.0725288-13.4859786-1.7005627-20.28-1.88l-.49-1.18c1.3780275-2.4528874.8666086-5.533874-1.23-7.41.0717383-2.5555124-.3039185-5.1038873-1.11-7.53 7.7414414-.109342 15.4648727-.7777479 23.11-2 1.1 0 2 4.48 2 10z" fill="#fddead"/><path id="Shape" d="m56 31s-.87.16-2.46.38c.84 1.19 1.46 5 1.46 9.62s-.62 8.43-1.46 9.62c1.59.22 2.46.38 2.46.38 1.1 0 2-4.48 2-10s-.9-10-2-10z" fill="#ddc298"/><path id="Shape" d="m25 41.7c-1.2350758 1.8750034-1.3199616 4.2826716-.22 6.24l-.47 1.12c-7.4256533.1392115-14.83302407.7873982-22.17 1.94 1.04-.39 1.86-4.72 1.86-10s-.83-9.63-1.87-10c7.19767064 1.1342836 14.4647997 1.7724544 21.75 1.91.8529627 2.6082583 1.2322749 5.3481118 1.12 8.09z" fill="#fddead"/><path id="Shape" d="m25 41c.1098805-2.7352163-.2694023-5.4680843-1.12-8.07-7.2856607-.144164-14.55279258-.7890175-21.75-1.93.22627257.1122405.40654208.2995794.51.53 6.05228551.7727468 12.1403448 1.2333565 18.24 1.38.8529627 2.6082583 1.2322749 5.3481118 1.12 8.09v.7c-1.2350758 1.8750034-1.3199616 4.2826716-.22 6.24l-.47 1.12c-6.2400682.1358576-12.46867196.5998319-18.66 1.39-.10324327.2281315-.28391608.4123469-.51.52 7.33436667-1.1420994 14.7383766-1.7802609 22.16-1.91l.47-1.12c-1.0969705-1.9591802-1.0082247-4.3668927.23-6.24 0-.23 0-.46 0-.7z" fill="#ddc298"/><path id="Shape" d="m34 40.53c-1.0935981-.9946897-2.5217428-1.5409551-4-1.53-2.0142125.0036909-3.8921847 1.0177959-5 2.7 0-.23 0-.46 0-.7.1098805-2.7352163-.2694023-5.4680843-1.12-8.07 1.64 0 3.35.07 5.12.07h3.89c.8060815 2.4261127 1.1817383 4.9744876 1.11 7.53z" fill="#e83247"/><path id="Shape" d="m31 39.09c1.1193635.1761016 2.1624515.6767838 3 1.44.0717383-2.5555124-.3039185-5.1038873-1.11-7.53h-3c.6945877 1.9572337 1.0693877 4.0135689 1.11 6.09z" fill="#b51a38"/><path id="Shape" d="m26 33h1.75c-1.33 0-2.62 0-3.87-.06v.06z" fill="#b51a38"/><path id="Shape" d="m36 45c0 3.3137085-2.6862915 6-6 6s-6-2.6862915-6-6 2.6862915-6 6-6c1.4782572-.0109551 2.9064019.5353103 4 1.53 1.2720468 1.1377531 1.9993924 2.7633703 2 4.47z" fill="#e83247"/><path id="Shape" d="m34 40.53c-1.0935981-.9946897-2.5217428-1.5409551-4-1.53-.5197719.0005662-1.0373258.067781-1.54.2.9443289.2245844 1.8174903.681791 2.54 1.33 1.6431041 1.4763021 2.3421625 3.7360218 1.8197111 5.882252-.5224513 2.1462301-2.181907 3.8318228-4.3197111 4.387748.4889124.1329203.9933412.2001775 1.5.2 2.4866747-.000989 4.7150438-1.5357633 5.6025023-3.8586858.8874585-2.3229226.2500707-4.952542-1.6025023-6.6113142z" fill="#b51a38"/><path id="Shape" d="m30 51-2.66 6.37c-.1540888.3751172-.5194679.6200329-.925.6200329s-.7709112-.2449157-.925-.6200329l-.73-1.68-1.68.72c-.3691805.1545246-.7949353.0740532-1.0822498-.2045549-.2873146-.278608-.380845-.7016858-.2377502-1.0754451l2.54-6.1.47-1.12c1.0546095 1.9016104 3.055538 3.0838033 5.23 3.09z" fill="#e83247"/><path id="Shape" d="m21.76 55.72h-.05c.0428169.1881336.1361716.3610126.27.5z" fill="#b51a38"/><path id="Shape" d="m24.77 47.94-.47 1.12-.44 1c.9391382.5986881 2.0263765.9241671 3.14.94l-2.1 5 .59 1.36c.1540888.3751172.5194679.6200329.925.6200329s.7709112-.2449157.925-.6200329l2.66-6.36c-2.1681636-.0001209-4.1675998-1.1699632-5.23-3.06z" fill="#b51a38"/><path id="Shape" d="m36.92 56.44-1.68-.72-.73 1.68c-.1540888.3751172-.5194679.6200329-.925.6200329s-.7709112-.2449157-.925-.6200329l-2.66-6.4c2.1681636-.0001209 4.1675998-1.1699632 5.23-3.06l.49 1.18 2.52 6c.1681005.3781257.0859415.820729-.2066648 1.1133352-.2926062.2926063-.7352095.3747653-1.1133352.2066648z" fill="#e83247"/><path id="Shape" d="m38.24 55.16-2.52-6-.49-1.18c-.5035519.8905372-1.2264468 1.6375285-2.1 2.17l2.11 5c.0572978.189088.0572978.390912 0 .58l1.63.7c.3717633.1832891.8180644.1182356 1.1220377-.1635499s.4026027-.7218864.2479623-1.1064501z" fill="#b51a38"/><ellipse id="Oval" cx="29" cy="24" fill="#627d8b" rx="14" ry="3"/><path id="Shape" d="m29 21h-1.5c7 .16 12.5 1.43 12.5 3s-5.48 2.82-12.5 3h1.5c7.73 0 14-1.34 14-3s-6.27-3-14-3z" fill="#384750"/><path id="Shape" d="m43 13v11c0-1.66-6.27-3-14-3s-14 1.34-14 3v-11c0-1.66 6.27-3 14-3s14 1.34 14 3z" fill="#6340ba"/><path id="Shape" d="m29 10h-1.5c7 .16 12.5 1.43 12.5 3v9.15c1.87.51 3 1.15 3 1.85v-11c0-1.66-6.27-3-14-3z" fill="#422da3"/><path id="Shape" d="m52 16v3c0 .5522847-.4477153 1-1 1h-2c-.5522847 0-1-.4477153-1-1v-3c0-1.1045695.8954305-2 2-2 .324353-.0022852.6441022.0767925.93.23.6577338.3454676 1.0697692 1.0270588 1.07 1.77z" fill="#e83247"/></g><g id="outline" fill="#000"><path id="Shape" d="m59.67 11.12-28-10c-.4424259-.16128579-.9275741-.16128579-1.37 0l-28 10c-.79096896.2870834-1.31765112 1.0385437-1.31765112 1.88s.52668216 1.5929166 1.31765112 1.88l13.7 4.89v6.23c0 3.89 13.46 4 15 4s15-.11 15-4v-6.23l3-1.07v2.3c0 1.1045695.8954305 2 2 2h2c1.1045695 0 2-.8954305 2-2v-3c-.0001957-.463574-.1134698-.920103-.33-1.33l5-1.79c.790969-.2870834 1.3176511-1.0385437 1.3176511-1.88s-.5266821-1.5929166-1.3176511-1.88zm-15.67 12.68c-3.81-1.73-11.84-1.8-13-1.8s-9.19.07-13 1.8v-8.71c.6-.77 5.32-2.09 13-2.09s12.4 1.32 13 2.09zm-13 4.2c-7.4 0-12-1.22-12.92-2 .92-.78 5.52-2 12.92-2s12 1.22 12.92 2c-.87.78-5.52 2-12.92 2zm18.47-11.59-3.47 1.23v-2.64c0-3.89-13.46-4-15-4s-15 .11-15 4v2.64l-13-4.64 28-10 20 7.14v5c-.6395439.2370943-1.1792023.685046-1.53 1.27zm3.53 4.59h-2v-3c0-.5522847.4477153-1 1-1s1 .4477153 1 1zm0-5.86v-4.28l6 2.14z"/><path id="Shape" d="m58 32h-.18c-8.8720885 1.3831847-17.8408881 2.051999-26.82 2-8.9791119.051999-17.9479115-.6168153-26.82-2h-.18c-.7 0-3 .79-3 11s2.3 11 3 11h.18c6.8183081-1.0737655 13.6997924-1.6984439 20.6-1.87l-2 4.68c-.2921437.7486861-.1077699 1.5995211.4680909 2.1601129s1.4313421.7220399 2.1719091.4098871l.77-.33.33.76c.329216.7442496 1.0765656 1.2148031 1.89 1.19.8061921-.0097187 1.5277146-.5025619 1.83-1.25l1.76-4.16 1.73 4.15c.3005315.7547002 1.0276961 1.2526499 1.84 1.26.7977729.002778 1.5208937-.4688225 1.84-1.2l.33-.77.75.32c.7438185.3215505 1.6081547.1624902 2.1887732-.4027911.5806184-.5652814.7627547-1.4250509.4612268-2.1772089l-1.91-4.59c6.2276311.2322291 12.4355772.8400001 18.59 1.82h.18c.7 0 3-.79 3-11s-2.3-11-3-11zm-23.8 4c.4125403 1.5285296.6540209 3.0981533.72 4.68-2.2768093-1.0714884-4.9552448-.8266029-7 .64-.0408708-1.7904169-.2585957-3.5724114-.65-5.32h3.73zm-2.2 16c-2.7614237 0-5-2.2385763-5-5s2.2385763-5 5-5 5 2.2385763 5 5-2.2385763 5-5 5zm-28-17.5c.76694787 2.765347 1.1042203 5.6321627 1 8.5.1042203 2.8678373-.23305213 5.734653-1 8.5-.76694787-2.765347-1.1042203-5.6321627-1-8.5-.1042203-2.8678373.23305213-5.734653 1-8.5zm2 17.17c.55-1.59 1-4.24 1-8.67s-.43-7.08-1-8.67c6.3532992.873636 12.749412 1.4010816 19.16 1.58.6113605 2.312198.8941358 4.6989562.84 7.09v.42c-1.2086406 1.998551-1.3326162 4.4705501-.33 6.58v.11c-6.5807219.1509402-13.1477522.6717621-19.67 1.56zm22.41 7.33-.73-1.68c-.2195504-.5038981-.8046314-.736144-1.31-.52l-1.69.74 2.32-5.62c.9602939.9777631 2.1885815 1.6493198 3.53 1.93zm9.22-2.2c-.5053686-.216144-1.0904496.0161019-1.31.52l-.74 1.68-2.14-5.13c1.3544829-.2806902 2.5941855-.9597408 3.56-1.95l2.34 5.6zm20.17-4.8c-6.4251912-.9846591-12.90333-1.5857235-19.4-1.8l-.07-.2c1.2610117-2.6544472.7297737-5.8139149-1.33-7.91-.0091041-2.0732139-.2472149-4.1390773-.71-6.16 7.2062882-.1634146 14.3945379-.7913844 21.52-1.88.47.79 1.21 3.9 1.21 9s-.76 8.11-1.22 8.95z"/></g></g></g></svg>